<svg width="25" height="24" viewBox="0 0 25 24" fill="none" xmlns="http://www.w3.org/2000/svg">
<g clip-path="url(#clip0_134_2690)">
<path d="M0.469484 23.9993C0.344969 23.9993 0.225554 23.9498 0.137509 23.8618C0.0494633 23.7738 0 23.6543 0 23.5298L0 7.50025C0 7.37573 0.0494633 7.25632 0.137509 7.16827C0.225554 7.08023 0.344969 7.03076 0.469484 7.03076H2.82629C2.95081 7.03076 3.07022 7.08023 3.15827 7.16827C3.24631 7.25632 3.29577 7.37573 3.29577 7.50025C3.29577 7.62476 3.24631 7.74418 3.15827 7.83222C3.07022 7.92027 2.95081 7.96973 2.82629 7.96973H0.938967V22.9214C5.31643 21.8148 8.95117 21.8505 12.0282 23.0294C13.8085 22.4215 15.6774 22.1133 17.5587 22.1171H17.6775C19.4113 22.1289 21.2315 22.3941 23.0972 22.9059V7.96973H21.2113C21.0868 7.96973 20.9673 7.92027 20.8793 7.83222C20.7912 7.74418 20.7418 7.62476 20.7418 7.50025C20.7418 7.37573 20.7912 7.25632 20.8793 7.16827C20.9673 7.08023 21.0868 7.03076 21.2113 7.03076H23.5681C23.6926 7.03076 23.812 7.08023 23.9 7.16827C23.9881 7.25632 24.0376 7.37573 24.0376 7.50025V23.5298C24.0376 23.6031 24.0205 23.6754 23.9876 23.7409C23.9547 23.8064 23.9069 23.8632 23.8481 23.9069C23.7893 23.9507 23.7211 23.98 23.6489 23.9926C23.5767 24.0052 23.5026 24.0008 23.4324 23.9796C19.3291 22.7425 15.6474 22.7402 12.1756 23.9725C12.0688 24.01 11.9521 24.0077 11.8469 23.966C8.7953 22.7481 5.11408 22.7533 0.595305 23.9829C0.554319 23.9941 0.51198 23.9996 0.469484 23.9993Z" fill="#CCCCCC"/>
<path d="M12.0188 21.1688C11.9881 21.1689 11.9574 21.1659 11.9273 21.1599C8.95386 20.5641 5.89178 20.5641 2.91836 21.1599C2.8501 21.1738 2.7796 21.1724 2.71196 21.1557C2.64433 21.139 2.58125 21.1075 2.52732 21.0634C2.47338 21.0193 2.42993 20.9637 2.40013 20.9008C2.37032 20.8378 2.3549 20.769 2.35498 20.6993V6.55753C2.35498 6.46272 2.38368 6.37013 2.43731 6.29194C2.49094 6.21376 2.56699 6.15364 2.65545 6.11951C4.62728 5.3566 6.56437 5.03969 8.41179 5.17725C8.47418 5.1806 8.53528 5.19637 8.5915 5.22363C8.64772 5.2509 8.69793 5.28911 8.7392 5.33603C8.78046 5.38295 8.81194 5.43764 8.83179 5.49688C8.85165 5.55613 8.85947 5.61874 8.85482 5.68105C8.85016 5.74336 8.83312 5.80411 8.80468 5.85975C8.77624 5.91538 8.73698 5.96478 8.6892 6.00505C8.64143 6.04532 8.58609 6.07564 8.52644 6.09425C8.4668 6.11285 8.40403 6.11937 8.34183 6.1134C6.72728 5.99322 5.03057 6.2519 3.29395 6.88289V20.1341C6.0242 19.6542 8.81722 19.6542 11.5475 20.1341V14.6111C11.5475 14.4865 11.5969 14.3671 11.685 14.2791C11.773 14.191 11.8924 14.1416 12.017 14.1416C12.1415 14.1416 12.2609 14.191 12.3489 14.2791C12.437 14.3671 12.4864 14.4865 12.4864 14.6111V20.6993C12.4864 20.8238 12.437 20.9432 12.3489 21.0313C12.2609 21.1193 12.1415 21.1688 12.017 21.1688H12.0188Z" fill="#CCCCCC"/>
<path d="M21.2113 21.1692C21.1798 21.1694 21.1483 21.1664 21.1174 21.1603C18.1439 20.565 15.0819 20.565 12.1085 21.1603C12.0405 21.1735 11.9705 21.1716 11.9034 21.1546C11.8363 21.1375 11.7738 21.1059 11.7203 21.0619C11.6669 21.0179 11.6238 20.9626 11.5943 20.9C11.5647 20.8374 11.5494 20.769 11.5493 20.6998V14.6115C11.5493 14.487 11.5988 14.3676 11.6868 14.2795C11.7749 14.1915 11.8943 14.142 12.0188 14.142C12.1433 14.142 12.2627 14.1915 12.3508 14.2795C12.4388 14.3676 12.4883 14.487 12.4883 14.6115V20.1345C15.2185 19.6547 18.0115 19.6547 20.7418 20.1345V6.88286C19.0047 6.25234 17.3099 5.99366 15.6958 6.11337C15.6336 6.11934 15.5708 6.11283 15.5112 6.09422C15.4515 6.07561 15.3962 6.04529 15.3484 6.00502C15.3006 5.96475 15.2614 5.91535 15.233 5.85972C15.2045 5.80408 15.1875 5.74333 15.1828 5.68102C15.1782 5.61871 15.186 5.5561 15.2058 5.49685C15.2257 5.43761 15.2572 5.38292 15.2984 5.336C15.3397 5.28908 15.3899 5.25087 15.4461 5.2236C15.5024 5.19634 15.5634 5.18057 15.6258 5.17722C17.4733 5.03967 19.4094 5.35704 21.3808 6.11995C21.4691 6.15416 21.5451 6.2143 21.5986 6.29248C21.6522 6.37066 21.6808 6.46322 21.6808 6.55798V20.6998C21.6808 20.8243 21.6313 20.9437 21.5433 21.0317C21.4552 21.1198 21.3358 21.1692 21.2113 21.1692Z" fill="#CCCCCC"/>
<path d="M10.4944 11.7814C10.3699 11.7814 10.2505 11.7319 10.1624 11.6439C10.0744 11.5559 10.0249 11.4364 10.0249 11.3119C10.0229 11.0309 9.95874 10.7537 9.83699 10.5004C9.71523 10.2471 9.53892 10.0238 9.3207 9.84667C8.64892 9.29088 8.16529 8.54109 7.936 7.69989C7.70671 6.85869 7.74296 5.96719 8.03979 5.14738C8.33662 4.32758 8.87952 3.61952 9.59421 3.12011C10.3089 2.62069 11.1604 2.35432 12.0323 2.35745C12.9042 2.36057 13.7538 2.63304 14.4649 3.13757C15.176 3.64209 15.7138 4.35402 16.0047 5.17594C16.2957 5.99785 16.3255 6.88959 16.0902 7.72912C15.8549 8.56865 15.3659 9.31496 14.6902 9.86592C14.4764 10.0412 14.3045 10.2619 14.187 10.5121C14.0695 10.7623 14.0093 11.0355 14.0108 11.3119C14.0108 11.4364 13.9614 11.5559 13.8733 11.6439C13.7853 11.7319 13.6659 11.7814 13.5414 11.7814C13.4168 11.7814 13.2974 11.7319 13.2094 11.6439C13.1213 11.5559 13.0719 11.4364 13.0719 11.3119C13.07 10.8962 13.1611 10.4853 13.3383 10.1092C13.5155 9.73319 13.7745 9.40144 14.0963 9.13822C14.6217 8.70947 15.0019 8.12885 15.1847 7.47578C15.3675 6.82272 15.3441 6.12911 15.1177 5.48986C14.8912 4.85061 14.4728 4.29694 13.9196 3.90461C13.3664 3.51227 12.7056 3.30043 12.0274 3.29807C11.3492 3.2957 10.6869 3.50294 10.131 3.89141C9.57512 4.27988 9.15283 4.83062 8.92193 5.46828C8.69103 6.10594 8.66278 6.79936 8.84106 7.45369C9.01934 8.10801 9.39543 8.69127 9.91788 9.12367C10.2424 9.38886 10.5042 9.7226 10.6845 10.1009C10.8648 10.4793 10.9591 10.8928 10.9606 11.3119C10.9606 11.4359 10.9116 11.5548 10.8243 11.6427C10.7369 11.7307 10.6183 11.7805 10.4944 11.7814Z" fill="#CCCCCC"/>
<path d="M13.8144 13.6667H10.2229C9.92028 13.6663 9.63019 13.546 9.41624 13.332C9.20228 13.118 9.08192 12.828 9.08154 12.5254V11.9836C9.08192 11.681 9.20228 11.3909 9.41624 11.177C9.63019 10.963 9.92028 10.8427 10.2229 10.8423H13.8144C14.117 10.8427 14.4071 10.963 14.621 11.177C14.835 11.3909 14.9553 11.681 14.9557 11.9836V12.5254C14.9553 12.828 14.835 13.118 14.621 13.332C14.4071 13.546 14.117 13.6663 13.8144 13.6667ZM10.2229 11.7813C10.1692 11.7813 10.1177 11.8026 10.0798 11.8405C10.0418 11.8785 10.0205 11.9299 10.0205 11.9836V12.5254C10.0205 12.579 10.0418 12.6305 10.0798 12.6685C10.1177 12.7064 10.1692 12.7277 10.2229 12.7277H13.8144C13.8681 12.7277 13.9195 12.7064 13.9575 12.6685C13.9954 12.6305 14.0168 12.579 14.0168 12.5254V11.9836C14.0168 11.9299 13.9954 11.8785 13.9575 11.8405C13.9195 11.8026 13.8681 11.7813 13.8144 11.7813H10.2229Z" fill="#CCCCCC"/>
<path d="M12.0186 15.0808C11.5192 15.0803 11.0404 14.8816 10.6872 14.5285C10.3341 14.1754 10.1355 13.6966 10.135 13.1972C10.135 13.0727 10.1845 12.9533 10.2725 12.8652C10.3606 12.7772 10.48 12.7277 10.6045 12.7277C10.729 12.7277 10.8484 12.7772 10.9365 12.8652C11.0245 12.9533 11.074 13.0727 11.074 13.1972C11.074 13.4477 11.1735 13.688 11.3506 13.8651C11.5278 14.0423 11.7681 14.1418 12.0186 14.1418C12.2691 14.1418 12.5094 14.0423 12.6865 13.8651C12.8637 13.688 12.9632 13.4477 12.9632 13.1972C12.9632 13.0727 13.0126 12.9533 13.1007 12.8652C13.1887 12.7772 13.3081 12.7277 13.4327 12.7277C13.5572 12.7277 13.6766 12.7772 13.7646 12.8652C13.8527 12.9533 13.9021 13.0727 13.9021 13.1972C13.9017 13.6966 13.703 14.1754 13.3499 14.5285C12.9968 14.8816 12.518 15.0803 12.0186 15.0808ZM12.2533 1.40845C12.1288 1.40845 12.0094 1.35899 11.9213 1.27094C11.8333 1.1829 11.7838 1.06348 11.7838 0.938967V0.469484C11.7838 0.344969 11.8333 0.225554 11.9213 0.137509C12.0094 0.0494633 12.1288 0 12.2533 0C12.3778 0 12.4973 0.0494633 12.5853 0.137509C12.6733 0.225554 12.7228 0.344969 12.7228 0.469484V0.938967C12.7228 1.06348 12.6733 1.1829 12.5853 1.27094C12.4973 1.35899 12.3778 1.40845 12.2533 1.40845ZM16.1571 3.22207C16.0642 3.22214 15.9734 3.19466 15.8961 3.14311C15.8189 3.09155 15.7586 3.01824 15.723 2.93245C15.6875 2.84666 15.6781 2.75223 15.6962 2.66113C15.7143 2.57003 15.759 2.48634 15.8247 2.42066L16.158 2.08732C16.246 1.99923 16.3655 1.94971 16.49 1.94967C16.6146 1.94963 16.734 1.99906 16.8221 2.08709C16.9102 2.17512 16.9597 2.29454 16.9598 2.41908C16.9598 2.54362 16.9104 2.66308 16.8223 2.75117L16.489 3.08451C16.401 3.17256 16.2816 3.22204 16.1571 3.22207ZM8.21576 2.88873C8.09126 2.88871 7.97186 2.83922 7.88384 2.75117L7.55051 2.41784C7.50692 2.37422 7.47235 2.32244 7.44877 2.26546C7.42519 2.20848 7.41306 2.14742 7.41309 2.08575C7.41313 1.96121 7.46265 1.84179 7.55074 1.75376C7.63883 1.66572 7.75829 1.61629 7.88283 1.61634C7.9445 1.61636 8.00555 1.62853 8.06252 1.65214C8.11948 1.67576 8.17124 1.71037 8.21482 1.75399L8.54816 2.08732C8.61382 2.15301 8.65853 2.2367 8.67662 2.3278C8.69472 2.4189 8.68538 2.51332 8.6498 2.59912C8.61421 2.68491 8.55398 2.75822 8.47672 2.80977C8.39946 2.86133 8.30864 2.88881 8.21576 2.88873ZM12.0186 11.7812C11.8941 11.7812 11.7747 11.7318 11.6866 11.6437C11.5986 11.5557 11.5491 11.4363 11.5491 11.3117V8.57418H11.1345C10.8016 8.57418 10.4823 8.44191 10.2468 8.20648C10.0114 7.97105 9.87914 7.65173 9.87914 7.31878C9.87914 6.98583 10.0114 6.66651 10.2468 6.43108C10.4823 6.19564 10.8016 6.06338 11.1345 6.06338H12.8505C13.1835 6.06338 13.5028 6.19564 13.7382 6.43108C13.9736 6.66651 14.1059 6.98583 14.1059 7.31878C14.1059 7.65173 13.9736 7.97105 13.7382 8.20648C13.5028 8.44191 13.1835 8.57418 12.8505 8.57418H12.4881V11.3117C12.4881 11.4363 12.4386 11.5557 12.3506 11.6437C12.2625 11.7318 12.1431 11.7812 12.0186 11.7812ZM12.4881 7.63521H12.8505C12.9344 7.63521 13.0149 7.60187 13.0743 7.54253C13.1336 7.48319 13.1669 7.4027 13.1669 7.31878C13.1669 7.23486 13.1336 7.15437 13.0743 7.09503C13.0149 7.03569 12.9344 7.00235 12.8505 7.00235H12.4881V7.63521ZM11.1345 7.00235C11.0506 7.00235 10.9701 7.03569 10.9108 7.09503C10.8514 7.15437 10.8181 7.23486 10.8181 7.31878C10.8181 7.4027 10.8514 7.48319 10.9108 7.54253C10.9701 7.60187 11.0506 7.63521 11.1345 7.63521H11.5491V7.00235H11.1345Z" fill="#CCCCCC"/>
</g>
<defs>
<clipPath id="clip0_134_2690">
<rect width="24.0376" height="24" fill="white"/>
</clipPath>
</defs>
</svg>
