<svg width="90" height="90" viewBox="0 0 90 90" fill="none" xmlns="http://www.w3.org/2000/svg">
<circle cx="45" cy="45" r="45" fill="#EB5757" fill-opacity="0.2"/>
<g clip-path="url(#clip0_6286_9592)">
<path d="M41.8905 20.4689C35.2854 21.1777 29.3004 24.3375 25.0873 29.3578C22.1243 32.8819 20.2835 36.8785 19.4665 41.5641C19.2795 42.6371 19.2598 43.1588 19.2598 45.6C19.2598 48.0413 19.2795 48.563 19.4665 49.636C20.3918 54.9516 22.6165 59.3517 26.2882 63.1613C30.0584 67.0791 34.8129 69.5597 40.3648 70.5342C41.4377 70.7213 41.9595 70.741 44.4007 70.741C47.4818 70.741 48.4071 70.6425 50.8287 70.0224C59.5109 67.778 66.5787 60.7102 68.823 52.028C69.4432 49.6064 69.5416 48.6811 69.5416 45.6C69.5416 42.5189 69.4432 41.5936 68.823 39.1721C66.5787 30.4997 59.5109 23.4221 50.8287 21.1777C48.5941 20.6067 47.5409 20.4788 44.7945 20.4492C43.4163 20.4296 42.1071 20.4394 41.8905 20.4689ZM46.1234 29.0625C48.0724 29.2889 49.7262 29.7614 51.5177 30.6178L52.6793 31.1691L41.3295 42.5189L29.9796 53.8688L29.5071 52.9139C27.9813 49.8919 27.4498 46.3383 28.001 42.9422C28.9657 37.0557 33.1395 32.0255 38.7602 29.9878C41.1129 29.1314 43.7904 28.7967 46.1234 29.0625ZM60.1507 40.373C61.0268 43.0013 61.2335 45.5607 60.8004 48.2578C59.6585 55.2567 54.0574 60.8578 47.0585 61.9997C43.692 62.5411 40.414 62.0686 37.2837 60.5822L36.1221 60.031L47.472 48.6811L58.8218 37.3313L59.2943 38.2861C59.5601 38.8078 59.944 39.743 60.1507 40.373Z" fill="#EB5757"/>
</g>
<defs>
<clipPath id="clip0_6286_9592">
<rect width="50.4" height="50.4" fill="white" transform="translate(19.2002 20.4)"/>
</clipPath>
</defs>
</svg>
