<svg width="24" height="24" viewBox="0 0 24 24" fill="none" xmlns="http://www.w3.org/2000/svg">
<g clip-path="url(#clip0_5953_9781)">
<path fill-rule="evenodd" clip-rule="evenodd" d="M11.0832 0.022573C9.30665 0.192823 7.98533 0.568807 6.48941 1.32973C4.71735 2.23104 3.12721 3.65632 1.96775 5.38249C1.47683 6.11337 0.876926 7.34721 0.588879 8.21843C0.356379 8.92165 0.171691 9.72195 0.0588164 10.5153C-0.0196055 11.0666 -0.0196055 12.9171 0.0588164 13.4684C0.255223 14.8491 0.620145 16.0586 1.19029 17.2184C1.83533 18.5307 2.46716 19.4122 3.51027 20.4554C4.54199 21.4871 5.4373 22.1313 6.70035 22.7509C7.58165 23.1832 8.15066 23.3937 9.0441 23.6178C11.3885 24.2058 13.7398 24.093 16.0303 23.2827C16.7246 23.0372 17.9366 22.4297 18.5597 22.0151C19.9606 21.0829 21.2466 19.7646 22.1643 18.32C22.5019 17.7885 23.0445 16.6671 23.2658 16.0434C24.367 12.9404 24.1753 9.60996 22.7281 6.70001C22.1441 5.52565 21.4939 4.60526 20.5809 3.66059C19.5686 2.61293 18.5756 1.89012 17.2472 1.23378C15.8587 0.54776 14.565 0.181573 13.0285 0.0395886C12.5509 -0.00452077 11.4652 -0.0140364 11.0832 0.022573ZM17.8671 7.89523C18.2356 8.10888 18.4191 8.58692 18.3015 9.02684C18.2458 9.23487 18.0171 9.4751 14.8618 12.6398C12.7946 14.713 11.4088 16.0678 11.2941 16.1276C11.0531 16.2531 10.6529 16.2612 10.4269 16.1452C10.2004 16.0288 6.83586 12.6711 6.71146 12.4372C6.51782 12.0732 6.61091 11.5433 6.91907 11.2558C7.17707 11.0152 7.70094 10.9314 8.00347 11.0824C8.08597 11.1236 8.7598 11.7614 9.50085 12.4998L10.8483 13.8423L13.8602 10.8365C17.135 7.56856 16.9792 7.70192 17.4582 7.75643C17.5742 7.76965 17.7582 7.83209 17.8671 7.89523Z" fill="#F39C35"/>
</g>
<defs>
<clipPath id="clip0_5953_9781">
<rect width="24" height="24" fill="white"/>
</clipPath>
</defs>
</svg>
