<svg width="24" height="24" viewBox="0 0 24 24" fill="none" xmlns="http://www.w3.org/2000/svg">
<g clip-path="url(#clip0_5953_9812)">
<mask id="mask0_5953_9812" style="mask-type:luminance" maskUnits="userSpaceOnUse" x="0" y="0" width="24" height="24">
<path d="M0 0H24V24H0V0Z" fill="white"/>
</mask>
<g mask="url(#mask0_5953_9812)">
<path d="M23.3687 20.8423C23.3687 21.5124 23.1025 22.1549 22.6287 22.6287C22.155 23.1025 21.5124 23.3687 20.8424 23.3687H3.15815C2.48813 23.3687 1.84555 23.1025 1.37178 22.6287C0.898001 22.1549 0.631836 21.5124 0.631836 20.8423V3.15813C0.631836 2.48811 0.898001 1.84553 1.37178 1.37175C1.84555 0.897976 2.48813 0.631811 3.15815 0.631811H20.8424C21.5124 0.631811 22.155 0.897976 22.6287 1.37175C23.1025 1.84553 23.3687 2.48811 23.3687 3.15813V20.8423Z" fill="#EB5757"/>
<path d="M14.2302 12.0039L19.4332 6.80093C19.5799 6.6544 19.6963 6.48039 19.7757 6.28884C19.8551 6.0973 19.896 5.89197 19.896 5.68462C19.896 5.47726 19.8551 5.27194 19.7757 5.08039C19.6963 4.88884 19.5799 4.71483 19.4332 4.5683C19.2866 4.42158 19.1126 4.30519 18.9211 4.22577C18.7295 4.14636 18.5242 4.10548 18.3168 4.10548C18.1095 4.10548 17.9042 4.14636 17.7126 4.22577C17.5211 4.30519 17.3471 4.42158 17.2005 4.5683L11.9976 9.77125L6.79463 4.5683C6.64826 4.42061 6.47417 4.30328 6.28234 4.22305C6.09051 4.14282 5.88472 4.10127 5.67679 4.10078C5.46886 4.1003 5.26288 4.14089 5.07068 4.22022C4.87847 4.29956 4.70383 4.41608 4.55678 4.56309C4.40973 4.71009 4.29317 4.8847 4.21378 5.07688C4.13439 5.26906 4.09374 5.47503 4.09417 5.68296C4.09459 5.89089 4.13608 6.09669 4.21626 6.28854C4.29643 6.4804 4.41371 6.65452 4.56137 6.80093L9.76494 12.0039L4.54937 17.2195C4.32791 17.44 4.17694 17.7214 4.11562 18.0278C4.0543 18.3343 4.0854 18.6521 4.20495 18.9409C4.32451 19.2296 4.52714 19.4764 4.78715 19.6498C5.04716 19.8233 5.35282 19.9156 5.66537 19.915C6.06958 19.915 6.47379 19.7609 6.782 19.4521L11.9976 14.2365L17.2005 19.4395C17.347 19.5863 17.5211 19.7027 17.7127 19.782C17.9043 19.8614 18.1098 19.9021 18.3172 19.9018C18.6296 19.9022 18.9351 19.8098 19.1949 19.6364C19.4548 19.463 19.6574 19.2164 19.7769 18.9277C19.8964 18.6391 19.9276 18.3214 19.8664 18.0151C19.8052 17.7087 19.6544 17.4274 19.4332 17.2068L14.2302 12.0039Z" fill="white"/>
</g>
</g>
<defs>
<clipPath id="clip0_5953_9812">
<rect width="24" height="24" fill="white"/>
</clipPath>
</defs>
</svg>
