<svg width="22" height="22" viewBox="0 0 22 22" fill="none" xmlns="http://www.w3.org/2000/svg">
<path d="M13.75 0H2.75V22H19.25V5.5L13.75 0ZM17.875 20.625H4.125V1.375H12.375V6.875H17.875V20.625ZM13.75 5.5V1.375L17.875 5.5H13.75Z" fill="#999999"/>
<path d="M10.9994 8.86108C12.0806 8.8611 13.127 9.24334 13.9536 9.94023C14.7802 10.6371 15.3339 11.6038 15.5167 12.6694C15.6995 13.735 15.4997 14.831 14.9527 15.7635C14.4056 16.6961 13.5465 17.4053 12.5271 17.7656C11.5077 18.126 10.3938 18.1145 9.38216 17.733C8.37051 17.3515 7.5263 16.6246 6.99872 15.6809C6.47115 14.7372 6.29418 13.6373 6.4991 12.5757C6.70402 11.5141 7.27763 10.5592 8.11855 9.8796" stroke="#999999" stroke-width="1.22222" stroke-linecap="round" stroke-linejoin="round"/>
<path d="M6.41602 9.625H8.45305V11.662" stroke="#999999" stroke-width="0.855556" stroke-linecap="round" stroke-linejoin="round"/>
</svg>
