<svg width="22" height="24" viewBox="0 0 22 24" fill="none" xmlns="http://www.w3.org/2000/svg">
<path fill-rule="evenodd" clip-rule="evenodd" d="M9.05836 1.85152L7.22629 3.70304H11.0642H14.9021L13.07 1.85152C12.0621 0.833183 11.1595 0 11.0642 0C10.9688 0 10.0662 0.833183 9.05836 1.85152ZM0.994074 6.93887C0.895327 7.19593 0.895327 7.61622 0.994074 7.87327C1.14991 8.27937 2.47375 8.32967 11.1333 8.25901L21.0932 8.17754V7.40607V6.63461L11.1333 6.55314C2.47375 6.48247 1.14991 6.53277 0.994074 6.93887ZM0.994074 11.5677C0.895327 11.8247 0.895327 12.245 0.994074 12.5021C1.14991 12.9082 2.47375 12.9585 11.1333 12.8878L21.0932 12.8063V12.0349V11.2634L11.1333 11.1819C2.47375 11.1113 1.14991 11.1616 0.994074 11.5677ZM0.994074 16.1965C0.895327 16.4535 0.895327 16.8738 0.994074 17.1309C1.14991 17.537 2.47375 17.5873 11.1333 17.5166L21.0932 17.4351V16.6637V15.8922L11.1333 15.8107C2.47375 15.7401 1.14991 15.7904 0.994074 16.1965ZM9.24074 22.1834C10.1588 23.1826 10.9793 24 11.0642 24C11.149 24 11.9696 23.1826 12.8876 22.1834L14.5564 20.3667H11.0642H7.5719L9.24074 22.1834Z" fill="#CCCCCC"/>
</svg>
