<svg width="24" height="24" viewBox="0 0 24 24" fill="none" xmlns="http://www.w3.org/2000/svg">
<path fill-rule="evenodd" clip-rule="evenodd" d="M15.75 5.25C16.1644 5.25 16.5 5.25 16.5 5.25C16.5 3.17888 14.8211 1.5 12.75 1.5C10.9174 1.5 8.58262 1.5 6.75 1.5C4.67888 1.5 3 3.17888 3 5.25V15.75C3 17.8211 4.67888 19.5 6.75 19.5C7.57613 19.5 8.25 19.5 8.25 19.5C8.66437 19.5 9 19.1644 9 18.75V8.25C9 7.00725 10.0072 6 11.25 6C13.3384 6 15.75 6 15.75 6V5.25Z" fill="#FFC40C"/>
<path fill-rule="evenodd" clip-rule="evenodd" d="M11.25 22.5H17.25C19.3211 22.5 21 20.8211 21 18.75V8.25C21 6.17888 19.3211 4.5 17.25 4.5C15.4174 4.5 13.0826 4.5 11.25 4.5C9.17888 4.5 7.5 6.17888 7.5 8.25V18.75C7.5 20.8211 9.17888 22.5 11.25 22.5Z" fill="#F39C35"/>
<path fill-rule="evenodd" clip-rule="evenodd" d="M17.25 12.75H11.25C10.836 12.75 10.5 13.086 10.5 13.5C10.5 13.914 10.836 14.25 11.25 14.25H17.25C17.664 14.25 18 13.914 18 13.5C18 13.086 17.664 12.75 17.25 12.75Z" fill="#EAEAEA"/>
<path fill-rule="evenodd" clip-rule="evenodd" d="M13.5 10.5V16.5C13.5 16.914 13.836 17.25 14.25 17.25C14.664 17.25 15 16.914 15 16.5V10.5C15 10.086 14.664 9.75 14.25 9.75C13.836 9.75 13.5 10.086 13.5 10.5Z" fill="#EAEAEA"/>
</svg>
