<svg width="90" height="90" viewBox="0 0 90 90" fill="none" xmlns="http://www.w3.org/2000/svg">
<path d="M50.3033 44.9999L62.6521 32.6512C63.3351 31.9439 63.7131 30.9967 63.7046 30.0134C63.696 29.0302 63.3016 28.0897 62.6064 27.3944C61.9111 26.6991 60.9705 26.3047 59.9873 26.2962C59.0041 26.2876 58.0568 26.6656 57.3495 27.3487L45.0008 39.6974L32.652 27.3487C31.9448 26.6656 30.9975 26.2876 30.0143 26.2962C29.0311 26.3047 28.0905 26.6991 27.3952 27.3944C26.6999 28.0897 26.3056 29.0302 26.297 30.0134C26.2885 30.9967 26.6665 31.9439 27.3495 32.6512L39.6983 44.9999L27.3495 57.3487C26.6665 58.056 26.2885 59.0032 26.297 59.9864C26.3056 60.9697 26.6999 61.9102 27.3952 62.6055C28.0905 63.3008 29.0311 63.6952 30.0143 63.7037C30.9975 63.7123 31.9448 63.3343 32.652 62.6512L45.0008 50.3024L57.3495 62.6512C58.0568 63.3343 59.0041 63.7123 59.9873 63.7037C60.9705 63.6952 61.9111 63.3008 62.6064 62.6055C63.3016 61.9102 63.696 60.9697 63.7046 59.9864C63.7131 59.0032 63.3351 58.056 62.6521 57.3487L50.3033 44.9999Z" fill="#EB5757"/>
<path d="M71.5124 18.4875C68.0531 14.9059 63.9152 12.049 59.34 10.0837C54.7649 8.11835 49.8441 7.08387 44.8649 7.0406C39.8857 6.99733 34.9477 7.94615 30.3391 9.83168C25.7305 11.7172 21.5435 14.5017 18.0226 18.0227C14.5016 21.5437 11.7171 25.7306 9.83156 30.3392C7.94602 34.9478 6.99721 39.8858 7.04048 44.865C7.08375 49.8443 8.11823 54.765 10.0836 59.3402C12.0489 63.9153 14.9057 68.0532 18.4874 71.5125C21.9466 75.0941 26.0846 77.951 30.6597 79.9163C35.2348 81.8816 40.1556 82.9161 45.1348 82.9594C50.114 83.0027 55.052 82.0538 59.6606 80.1683C64.2693 78.2828 68.4562 75.4983 71.9772 71.9773C75.4982 68.4563 78.2827 64.2694 80.1682 59.6608C82.0537 55.0522 83.0025 50.1142 82.9593 45.1349C82.916 40.1557 81.8815 35.235 79.9162 30.6598C77.9508 26.0847 75.094 21.9467 71.5124 18.4875ZM62.6511 57.3487C63.0093 57.6947 63.295 58.1085 63.4915 58.566C63.688 59.0235 63.7915 59.5156 63.7958 60.0135C63.8001 60.5114 63.7053 61.0052 63.5167 61.4661C63.3282 61.9269 63.0497 62.3456 62.6976 62.6977C62.3455 63.0498 61.9268 63.3283 61.4659 63.5168C61.0051 63.7054 60.5113 63.8003 60.0134 63.7959C59.5154 63.7916 59.0234 63.6882 58.5659 63.4916C58.1083 63.2951 57.6945 63.0094 57.3486 62.6512L44.9999 50.3025L32.6511 62.6512C31.9439 63.3343 30.9966 63.7123 30.0134 63.7038C29.0301 63.6952 28.0896 63.3008 27.3943 62.6056C26.699 61.9103 26.3046 60.9697 26.2961 59.9865C26.2875 59.0033 26.6655 58.056 27.3486 57.3487L39.6974 45L27.3486 32.6512C26.6655 31.944 26.2875 30.9967 26.2961 30.0135C26.3046 29.0303 26.699 28.0897 27.3943 27.3944C28.0896 26.6991 29.0301 26.3048 30.0134 26.2962C30.9966 26.2877 31.9439 26.6656 32.6511 27.3487L44.9999 39.6975L57.3486 27.3487C58.0559 26.6656 59.0031 26.2877 59.9864 26.2962C60.9696 26.3048 61.9102 26.6991 62.6054 27.3944C63.3007 28.0897 63.6951 29.0303 63.7037 30.0135C63.7122 30.9967 63.3342 31.944 62.6511 32.6512L50.3024 45L62.6511 57.3487Z" fill="#EB5757" fill-opacity="0.2"/>
</svg>
