<svg width="22" height="22" viewBox="0 0 22 22" fill="none" xmlns="http://www.w3.org/2000/svg">
<path d="M13.75 0H2.75V22H19.25V5.5L13.75 0ZM17.875 20.625H4.125V1.375H12.375V6.875H17.875V20.625ZM13.75 5.5V1.375L17.875 5.5H13.75Z" fill="#F39C35"/>
<path d="M14.3752 10.3572C14.4633 10.275 14.5343 10.1763 14.5843 10.0666C14.6342 9.95699 14.6621 9.83857 14.6663 9.71813C14.6705 9.5977 14.651 9.47761 14.6088 9.36473C14.5667 9.25185 14.5027 9.14838 14.4206 9.06024C14.3385 8.9721 14.2398 8.901 14.1303 8.85102C14.0207 8.80103 13.9024 8.77313 13.782 8.76892C13.6617 8.7647 13.5417 8.78424 13.4289 8.82644C13.3161 8.86863 13.2128 8.93264 13.1247 9.01482L10.442 11.5179L7.94094 8.83222C7.77359 8.66068 7.5458 8.5615 7.30631 8.55591C7.06682 8.55032 6.83466 8.63877 6.6595 8.80232C6.48434 8.96587 6.3801 9.19153 6.36908 9.43102C6.35806 9.67052 6.44114 9.90481 6.60054 10.0838L9.10164 12.7686L6.41809 15.2717C6.32691 15.353 6.25289 15.4518 6.20037 15.5622C6.14786 15.6725 6.11792 15.7923 6.1123 15.9144C6.10668 16.0365 6.1255 16.1586 6.16766 16.2733C6.20981 16.388 6.27445 16.4932 6.35778 16.5826C6.44111 16.672 6.54145 16.7438 6.6529 16.7938C6.76435 16.8438 6.88466 16.8711 7.00678 16.8739C7.1289 16.8768 7.25035 16.8552 7.36401 16.8104C7.47767 16.7656 7.58124 16.6986 7.66864 16.6132L10.3513 14.111L12.8524 16.7958C12.9331 16.8887 13.0318 16.9644 13.1424 17.0184C13.253 17.0724 13.3734 17.1035 13.4963 17.11C13.6192 17.1164 13.7421 17.098 13.8577 17.0559C13.9734 17.0138 14.0794 16.9488 14.1694 16.8648C14.2594 16.7808 14.3316 16.6795 14.3817 16.567C14.4318 16.4545 14.4587 16.3331 14.4609 16.2099C14.4631 16.0868 14.4405 15.9644 14.3944 15.8502C14.3483 15.736 14.2798 15.6322 14.1928 15.5451L11.6926 12.8603L14.3752 10.3572Z" fill="#F39C35"/>
</svg>
