<svg width="16" height="16" viewBox="0 0 16 16" fill="none" xmlns="http://www.w3.org/2000/svg">
<path d="M7.2175 3.99997C7.18195 4.40064 7.20051 4.80426 7.2727 5.19997H2.9999C2.84077 5.19997 2.68816 5.13676 2.57564 5.02424C2.46312 4.91171 2.3999 4.7591 2.3999 4.59997C2.3999 4.44084 2.46312 4.28823 2.57564 4.17571C2.68816 4.06319 2.84077 3.99997 2.9999 3.99997H7.2175ZM8.3815 7.39997C8.90118 7.95815 9.55703 8.37167 10.2847 8.59997H4.5999C4.44077 8.59997 4.28816 8.53676 4.17564 8.42424C4.06312 8.31171 3.9999 8.1591 3.9999 7.99997C3.9999 7.84084 4.06312 7.68823 4.17564 7.57571C4.28816 7.46319 4.44077 7.39997 4.5999 7.39997H8.3815ZM9.7999 10.8C9.95903 10.8 10.1116 10.8632 10.2242 10.9757C10.3367 11.0882 10.3999 11.2408 10.3999 11.4C10.3999 11.5591 10.3367 11.7117 10.2242 11.8242C10.1116 11.9368 9.95903 12 9.7999 12H6.1999C6.04077 12 5.88816 11.9368 5.77564 11.8242C5.66312 11.7117 5.5999 11.5591 5.5999 11.4C5.5999 11.2408 5.66312 11.0882 5.77564 10.9757C5.88816 10.8632 6.04077 10.8 6.1999 10.8H9.7999Z" fill="#F39C35"/>
<g clip-path="url(#clip0_7032_11781)">
<path fill-rule="evenodd" clip-rule="evenodd" d="M11.5 8C10.5717 8 9.6815 7.63125 9.02513 6.97487C8.36875 6.3185 8 5.42826 8 4.5C8 3.57174 8.36875 2.6815 9.02513 2.02513C9.6815 1.36875 10.5717 1 11.5 1C12.4283 1 13.3185 1.36875 13.9749 2.02513C14.6313 2.6815 15 3.57174 15 4.5C15 5.42826 14.6313 6.3185 13.9749 6.97487C13.3185 7.63125 12.4283 8 11.5 8ZM13.0969 3.25006L11.0231 5.2875L9.90312 4.18762C9.86151 4.14798 9.80597 4.1263 9.7485 4.12728C9.69104 4.12826 9.63626 4.15182 9.59603 4.19286C9.55579 4.2339 9.53332 4.28913 9.53348 4.3466C9.53364 4.40408 9.55641 4.45918 9.59688 4.5L10.8696 5.74994C10.9105 5.79002 10.9654 5.81247 11.0227 5.81247C11.0799 5.81247 11.1349 5.79002 11.1758 5.74994L13.4031 3.56244C13.4241 3.54244 13.4409 3.51847 13.4526 3.49192C13.4642 3.46537 13.4705 3.43678 13.4709 3.40779C13.4714 3.37881 13.4662 3.35001 13.4554 3.32308C13.4447 3.29615 13.4287 3.27162 13.4084 3.25092C13.3881 3.23022 13.3639 3.21376 13.3372 3.2025C13.3105 3.19123 13.2818 3.18539 13.2528 3.18531C13.2238 3.18523 13.1951 3.19092 13.1684 3.20203C13.1416 3.21315 13.1173 3.22947 13.0969 3.25006Z" fill="#57C796"/>
</g>
<defs>
<clipPath id="clip0_7032_11781">
<rect width="7" height="7" fill="white" transform="translate(8 1)"/>
</clipPath>
</defs>
</svg>
