<svg width="25" height="24" viewBox="0 0 25 24" fill="none" xmlns="http://www.w3.org/2000/svg">
<g clip-path="url(#clip0_5750_10691)">
<path d="M12.6652 12.8C12.4531 12.8 12.2496 12.8843 12.0995 13.0343C11.9495 13.1843 11.8652 13.3878 11.8652 13.6C11.8652 13.8122 11.9495 14.0156 12.0995 14.1657C12.2496 14.3157 12.4531 14.4 12.6652 14.4C12.8774 14.4 13.0809 14.3157 13.2309 14.1657C13.3809 14.0156 13.4652 13.8122 13.4652 13.6C13.4652 13.3878 13.3809 13.1843 13.2309 13.0343C13.0809 12.8843 12.8774 12.8 12.6652 12.8Z" fill="#CCCCCC"/>
<path fill-rule="evenodd" clip-rule="evenodd" d="M19.866 9.9056L13.466 6.7056V4.8H18.266V0H11.866V6.7056L5.46602 9.9056V12.8H2.26602V22.4H0.666016V24H10.266V17.6H15.066V24H24.666V22.4H23.066V12.8H19.866V9.9056ZM21.466 22.4V14.4H19.866V22.4H21.466ZM5.46602 22.4H3.86602V14.4H5.46602V22.4ZM10.266 13.6C10.266 12.9635 10.5189 12.353 10.969 11.9029C11.419 11.4529 12.0295 11.2 12.666 11.2C13.3025 11.2 13.913 11.4529 14.3631 11.9029C14.8132 12.353 15.066 12.9635 15.066 13.6C15.066 14.2365 14.8132 14.847 14.3631 15.2971C13.913 15.7471 13.3025 16 12.666 16C12.0295 16 11.419 15.7471 10.969 15.2971C10.5189 14.847 10.266 14.2365 10.266 13.6Z" fill="#CCCCCC"/>
<path d="M13.4652 24V19.2H11.8652V24H13.4652Z" fill="#CCCCCC"/>
</g>
<defs>
<clipPath id="clip0_5750_10691">
<rect width="24" height="24" fill="white" transform="translate(0.666016)"/>
</clipPath>
</defs>
</svg>
