<svg width="24" height="24" viewBox="0 0 24 24" fill="none" xmlns="http://www.w3.org/2000/svg">
<g clip-path="url(#clip0_1310_12145)">
<path d="M10.3418 20.6667C10.0994 20.8249 9.81647 20.9097 9.52703 20.9109H9.51877C9.23225 20.908 8.95251 20.8233 8.71252 20.6668C8.67396 20.6409 8.63065 20.6229 8.58511 20.6139C8.53956 20.6049 8.49267 20.6049 8.44715 20.6141C8.40164 20.6233 8.35839 20.6414 8.31991 20.6674C8.28143 20.6934 8.24848 20.7268 8.22297 20.7656C8.19745 20.8044 8.17987 20.8478 8.17125 20.8935C8.16262 20.9391 8.16313 20.986 8.17272 21.0314C8.18232 21.0768 8.20082 21.1199 8.22716 21.1582C8.2535 21.1964 8.28715 21.2291 8.32618 21.2542C8.67921 21.4867 9.09217 21.6117 9.51488 21.614H9.52698C9.95366 21.6123 10.3708 21.4874 10.7281 21.2543C10.8061 21.203 10.8604 21.1229 10.8793 21.0316C10.8982 20.9403 10.88 20.8452 10.8287 20.7673C10.7775 20.6894 10.6974 20.635 10.6061 20.6162C10.5148 20.5973 10.4197 20.6155 10.3418 20.6667ZM7.41779 18.1714C7.34826 18.1714 7.28029 18.1921 7.22247 18.2307C7.16466 18.2693 7.1196 18.3242 7.09299 18.3885C7.06638 18.4527 7.05942 18.5234 7.07298 18.5916C7.08655 18.6598 7.12003 18.7224 7.1692 18.7716C7.21836 18.8208 7.28101 18.8542 7.3492 18.8678C7.4174 18.8814 7.48809 18.8744 7.55233 18.8478C7.61657 18.8212 7.67147 18.7761 7.7101 18.7183C7.74873 18.6605 7.76935 18.5925 7.76935 18.523C7.76935 18.4298 7.73231 18.3403 7.66638 18.2744C7.60045 18.2085 7.51103 18.1714 7.41779 18.1714ZM16.3429 13.1178C15.3654 12.6822 14.1025 12.6159 13.3579 12.9334C12.5797 12.3187 11.665 11.9001 10.6911 11.7131C9.71719 11.5261 8.71256 11.5762 7.76204 11.8591C7.74878 11.8622 7.73571 11.8661 7.7229 11.8707C6.98743 12.0959 6.30046 12.4564 5.69729 12.9337C4.95282 12.616 3.6894 12.6822 2.71145 13.1178C1.82363 13.5131 1.09918 14.2433 0.616462 15.2291C0.137915 16.2066 -0.0683821 17.3705 0.0199304 18.5951C0.0236889 18.6473 0.0390317 18.6979 0.0648412 18.7434C0.0906507 18.7889 0.126277 18.828 0.169126 18.858C0.211974 18.8879 0.260966 18.908 0.312532 18.9166C0.364098 18.9252 0.416941 18.9223 0.467212 18.9079C1.16342 18.7089 1.83545 18.4335 2.47102 18.0866C2.75687 17.9302 3.0504 17.7496 3.34126 17.553C3.33806 17.633 3.33642 17.713 3.33634 17.7931C3.33634 21.2067 6.11354 23.9839 9.52716 23.9839C12.9408 23.9839 15.718 21.2067 15.718 17.7931C15.718 17.7127 15.7163 17.6327 15.7132 17.553C16.0038 17.7494 16.2975 17.93 16.5838 18.0866C17.2191 18.4335 17.891 18.709 18.5871 18.9078C18.6373 18.9222 18.6902 18.9252 18.7417 18.9166C18.7933 18.9079 18.8423 18.8879 18.8851 18.8579C18.928 18.828 18.9636 18.7889 18.9894 18.7434C19.0152 18.6979 19.0306 18.6473 19.0344 18.5951C19.1226 17.3705 18.9163 16.2066 18.4378 15.2291C17.9551 14.2433 17.2306 13.5132 16.3429 13.1178ZM9.52712 12.3053C10.7677 12.3069 11.9714 12.7281 12.9423 13.5004C13.9132 14.2727 14.5943 15.3508 14.8749 16.5593C13.9778 16.814 13.0331 16.8532 12.1179 16.6736C11.1333 16.4739 10.2606 16.0136 9.5942 15.3426C9.37663 15.1233 9.18183 14.8825 9.01276 14.624C9.00966 14.6189 9.0061 14.614 9.00273 14.609C8.58926 13.9589 8.3238 13.2259 8.22516 12.4618C8.65132 12.3577 9.08844 12.3052 9.52712 12.3053ZM7.54585 12.6756C7.65529 13.401 7.89667 14.1002 8.25802 14.7386C7.11751 15.7194 5.70053 16.3219 4.20287 16.4627C4.41777 15.6106 4.83333 14.8223 5.41486 14.1635C5.9964 13.5047 6.72705 12.9945 7.54585 12.6756ZM2.13371 17.4696C1.67582 17.7196 1.19728 17.9297 0.703368 18.0976C0.696149 17.1632 0.881962 16.2861 1.24806 15.5383C1.65727 14.7025 2.26224 14.0875 2.99752 13.7601C3.69329 13.4502 4.52991 13.3786 5.08951 13.4824C4.25089 14.3435 3.68151 15.4303 3.45104 16.6099C3.03337 16.928 2.59314 17.2154 2.13381 17.4696H2.13371ZM9.52716 23.2808C8.75462 23.2809 7.99077 23.1179 7.28559 22.8024C6.58041 22.4869 5.9498 22.026 5.43504 21.45C4.92027 20.8739 4.53294 20.1957 4.29841 19.4596C4.06388 18.7235 3.98743 17.9462 4.07406 17.1785C5.75706 17.062 7.35956 16.4139 8.65046 15.3278C8.78765 15.5073 8.93626 15.6777 9.09535 15.8381C9.86002 16.608 10.8569 17.1353 11.9782 17.3628C12.3945 17.4468 12.8183 17.489 13.2431 17.4886C13.8325 17.4876 14.4193 17.4101 14.9887 17.2578C15.0059 17.434 15.0146 17.6124 15.0149 17.7931C15.0132 19.248 14.4345 20.6429 13.4057 21.6716C12.377 22.7004 10.9821 23.2791 9.52721 23.2808L9.52716 23.2808ZM16.9211 17.4697C16.4619 17.2156 16.0218 16.9285 15.6041 16.6106C15.3737 15.4307 14.8044 14.3436 13.9657 13.4823C14.5252 13.3786 15.3614 13.4502 16.0568 13.7601C16.792 14.0875 17.397 14.7025 17.8062 15.5383C18.1723 16.2861 18.3582 17.1632 18.3509 18.0976C17.8572 17.9298 17.3788 17.7197 16.9211 17.4697ZM23.6546 4.19486C23.6542 4.19345 23.654 4.19204 23.6536 4.19069C23.6492 4.17554 23.6438 4.16071 23.6374 4.14629C23.3428 3.31829 22.8771 2.56159 22.2707 1.92542C21.6644 1.28924 20.9309 0.787836 20.1179 0.453821C19.305 0.119805 18.4309 -0.0393407 17.5524 -0.0132648C16.6739 0.012811 15.8108 0.223524 15.0191 0.605169C15.0075 0.609498 14.9962 0.614427 14.9852 0.619935C14.9747 0.625248 14.9646 0.630998 14.9548 0.637185C13.9103 1.15602 13.0313 1.95589 12.4164 2.94688C11.8016 3.93787 11.4753 5.08071 11.4743 6.24695C11.4743 9.70037 14.2839 12.5099 17.7372 12.5099C21.1906 12.5099 24.0002 9.70033 24.0002 6.24695C24.0008 5.5484 23.8839 4.85468 23.6546 4.19486ZM17.7373 0.68706C18.8223 0.688188 19.8834 1.00634 20.7901 1.60239C21.6968 2.19845 22.4096 3.04645 22.8408 4.04214C21.5884 4.31922 20.2835 4.2402 19.0738 3.81404C17.2421 3.15911 16.1625 1.86545 15.6537 1.09253C16.3155 0.824089 17.0231 0.686396 17.7373 0.68706ZM14.9538 1.43551C15.2621 2.4505 15.0568 3.55647 14.3912 4.34073C13.7081 5.14581 12.7679 5.34137 12.2443 5.38483C12.374 4.56654 12.6845 3.78746 13.1532 3.10428C13.6219 2.4211 14.237 1.85102 14.9538 1.43551H14.9538ZM17.7373 11.8068C16.2632 11.8051 14.85 11.2188 13.8077 10.1765C12.7654 9.13419 12.1791 7.721 12.1774 6.24695C12.1774 6.19604 12.1781 6.14534 12.1795 6.09484C12.8052 6.06339 14.027 5.85667 14.9274 4.79565C15.4846 4.12939 15.792 3.28965 15.7966 2.42111C16.6241 3.3475 17.6689 4.05367 18.8371 4.47611C20.5708 5.09608 22.1411 4.92597 23.0806 4.70884C23.3186 5.53674 23.3611 6.40862 23.2046 7.25574C23.0481 8.10285 22.697 8.90203 22.1789 9.59027C21.6608 10.2785 20.9899 10.837 20.2191 11.2216C19.4483 11.6063 18.5987 11.8066 17.7373 11.8068ZM19.8466 5.89539C19.7771 5.89539 19.7091 5.91601 19.6513 5.95464C19.5935 5.99327 19.5485 6.04817 19.5218 6.11241C19.4952 6.17665 19.4883 6.24734 19.5018 6.31554C19.5154 6.38373 19.5489 6.44638 19.5981 6.49554C19.6472 6.54471 19.7099 6.57819 19.7781 6.59176C19.8463 6.60532 19.9169 6.59836 19.9812 6.57175C20.0454 6.54514 20.1003 6.50008 20.139 6.44227C20.1776 6.38445 20.1982 6.31648 20.1982 6.24695C20.1982 6.15371 20.1612 6.06429 20.0952 5.99836C20.0293 5.93243 19.9399 5.89539 19.8466 5.89539ZM11.6365 18.1714C11.567 18.1714 11.499 18.192 11.4412 18.2306C11.3834 18.2693 11.3383 18.3242 11.3117 18.3884C11.2851 18.4527 11.2781 18.5233 11.2917 18.5915C11.3053 18.6597 11.3387 18.7224 11.3879 18.7715C11.4371 18.8207 11.4997 18.8542 11.5679 18.8678C11.6361 18.8813 11.7068 18.8744 11.771 18.8478C11.8353 18.8211 11.8902 18.7761 11.9288 18.7183C11.9674 18.6605 11.9881 18.5925 11.9881 18.523C11.9881 18.4297 11.951 18.3403 11.8851 18.2744C11.8192 18.2084 11.7297 18.1714 11.6365 18.1714ZM18.5519 8.71361C18.3095 8.87179 18.0266 8.95657 17.7371 8.95773H17.7289C17.4424 8.9549 17.1626 8.87021 16.9226 8.71365C16.8841 8.68779 16.8408 8.66982 16.7952 8.66078C16.7497 8.65175 16.7028 8.65182 16.6573 8.66101C16.6117 8.67019 16.5685 8.68831 16.53 8.7143C16.4915 8.74029 16.4586 8.77365 16.4331 8.81244C16.4076 8.85124 16.39 8.89471 16.3814 8.94034C16.3727 8.98596 16.3732 9.03285 16.3828 9.07828C16.3924 9.12371 16.4109 9.1668 16.4373 9.20504C16.4636 9.24328 16.4973 9.27593 16.5363 9.30109C16.8893 9.53359 17.3022 9.65857 17.7249 9.66086H17.7368C18.1636 9.65949 18.5809 9.53456 18.9383 9.30114C19.0162 9.24991 19.0705 9.16982 19.0894 9.0785C19.1083 8.98718 19.0901 8.89211 19.0389 8.8142C18.9876 8.73629 18.9075 8.68192 18.8162 8.66306C18.7249 8.64419 18.6298 8.66237 18.5519 8.71361ZM15.6279 5.89534C15.5583 5.89534 15.4903 5.91596 15.4325 5.95459C15.3747 5.99322 15.3297 6.04813 15.3031 6.11237C15.2764 6.17661 15.2695 6.24729 15.283 6.31549C15.2966 6.38369 15.3301 6.44633 15.3793 6.4955C15.4284 6.54466 15.4911 6.57815 15.5593 6.59171C15.6275 6.60528 15.6981 6.59831 15.7624 6.5717C15.8266 6.5451 15.8815 6.50004 15.9202 6.44222C15.9588 6.38441 15.9794 6.31644 15.9794 6.2469C15.9794 6.15366 15.9424 6.06424 15.8764 5.99831C15.8105 5.93238 15.7211 5.89534 15.6279 5.89534Z" fill="#999999"/>
</g>
<defs>
<clipPath id="clip0_1310_12145">
<rect width="24" height="24" fill="white"/>
</clipPath>
</defs>
</svg>
