<svg width="16" height="16" viewBox="0 0 16 16" fill="none" xmlns="http://www.w3.org/2000/svg">
<path d="M6.00065 8.66634V3.33301C6.00065 2.59967 6.60065 1.99967 7.33398 1.99967H13.334C14.0673 1.99967 14.6673 2.59967 14.6673 3.33301V7.33301H12.3807L11.5273 6.17301C11.4873 6.11301 11.4073 6.11301 11.3673 6.17301L10.0407 7.99967C10.0007 8.03967 9.92065 8.04634 9.88065 7.99967L8.92732 6.83301C8.88732 6.78634 8.81398 6.78634 8.77398 6.83301L7.36732 8.60634C7.31398 8.66634 7.36065 8.76634 7.44065 8.76634H11.6673V9.99967H7.33398C6.59398 9.99967 6.00065 9.40634 6.00065 8.66634ZM4.00065 14.6663V13.9997H2.66732V14.6663H1.33398V1.33301H2.66732V1.99967H4.00065V1.33301H5.59398C5.02732 1.82634 4.66732 2.53301 4.66732 3.33301V8.66634C4.66732 10.1397 5.86065 11.333 7.33398 11.333H10.4673C9.78065 11.8863 9.33398 12.7197 9.33398 13.6663C9.33398 14.0197 9.40732 14.353 9.52065 14.6663H4.00065ZM2.66732 4.66634H4.00065V3.33301H2.66732V4.66634ZM2.66732 7.33301H4.00065V5.99967H2.66732V7.33301ZM2.66732 9.99967H4.00065V8.66634H2.66732V9.99967ZM4.00065 12.6663V11.333H2.66732V12.6663H4.00065ZM15.334 8.66634V9.99967H14.0007V13.6663C14.0007 14.5863 13.254 15.333 12.334 15.333C11.414 15.333 10.6673 14.5863 10.6673 13.6663C10.6673 12.7463 11.414 11.9997 12.334 11.9997C12.574 11.9997 12.794 12.0463 13.0007 12.1397V8.66634H15.334Z" fill="#999999"/>
</svg>
