<svg width="24" height="24" viewBox="0 0 24 24" fill="none" xmlns="http://www.w3.org/2000/svg">
<path d="M3.44444 23C2.77222 23 2.19696 22.7608 1.71867 22.2826C1.24037 21.8043 1.00081 21.2286 1 20.5556V3.44444C1 2.77222 1.23956 2.19696 1.71867 1.71867C2.19778 1.24037 2.77304 1.00081 3.44444 1H20.5556C21.2278 1 21.8034 1.23956 22.2826 1.71867C22.7617 2.19778 23.0008 2.77304 23 3.44444V20.5556C23 21.2278 22.7608 21.8034 22.2826 22.2826C21.8043 22.7617 21.2286 23.0008 20.5556 23H3.44444ZM3.44444 20.5556H20.5556V5.88889H3.44444V20.5556ZM12 18.1111C10.3296 18.1111 8.8377 17.6581 7.52422 16.752C6.21074 15.8459 5.25822 14.6693 4.66667 13.2222C5.25741 11.7759 6.20993 10.5997 7.52422 9.69367C8.83852 8.78759 10.3304 8.33415 12 8.33333C13.6704 8.33333 15.1627 8.78678 16.477 9.69367C17.7913 10.6006 18.7434 11.7767 19.3333 13.2222C18.7426 14.6685 17.7905 15.8451 16.477 16.752C15.1635 17.6589 13.6712 18.1119 12 18.1111ZM12 15.0556C11.4907 15.0556 11.0581 14.8775 10.702 14.5214C10.3459 14.1654 10.1675 13.7323 10.1667 13.2222C10.1667 12.713 10.3451 12.2803 10.702 11.9242C11.0589 11.5681 11.4916 11.3897 12 11.3889C12.5093 11.3889 12.9423 11.5673 13.2992 11.9242C13.6561 12.2811 13.8341 12.7138 13.8333 13.2222C13.8333 13.7315 13.6553 14.1646 13.2992 14.5214C12.9431 14.8783 12.5101 15.0564 12 15.0556ZM12 16.2778C12.8556 16.2778 13.5787 15.9824 14.1694 15.3917C14.7602 14.8009 15.0556 14.0778 15.0556 13.2222C15.0556 12.3667 14.7602 11.6435 14.1694 11.0528C13.5787 10.462 12.8556 10.1667 12 10.1667C11.1444 10.1667 10.4213 10.462 9.83055 11.0528C9.23981 11.6435 8.94444 12.3667 8.94444 13.2222C8.94444 14.0778 9.23981 14.8009 9.83055 15.3917C10.4213 15.9824 11.1444 16.2778 12 16.2778Z" fill="#999999"/>
</svg>
