<svg width="25" height="24" viewBox="0 0 25 24" fill="none" xmlns="http://www.w3.org/2000/svg">
<path d="M0.469484 23.9995C0.344969 23.9995 0.225554 23.9501 0.137509 23.862C0.0494633 23.774 0 23.6546 0 23.5301L0 7.50049C0 7.37597 0.0494633 7.25656 0.137509 7.16851C0.225554 7.08047 0.344969 7.03101 0.469484 7.03101H2.82629C2.95081 7.03101 3.07022 7.08047 3.15827 7.16851C3.24631 7.25656 3.29577 7.37597 3.29577 7.50049C3.29577 7.625 3.24631 7.74442 3.15827 7.83246C3.07022 7.92051 2.95081 7.96997 2.82629 7.96997H0.938967V22.9216C5.31643 21.815 8.95117 21.8507 12.0282 23.0296C13.8085 22.4218 15.6774 22.1135 17.5587 22.1174H17.6775C19.4113 22.1291 21.2315 22.3944 23.0972 22.9061V7.96997H21.2113C21.0868 7.96997 20.9673 7.92051 20.8793 7.83246C20.7912 7.74442 20.7418 7.625 20.7418 7.50049C20.7418 7.37597 20.7912 7.25656 20.8793 7.16851C20.9673 7.08047 21.0868 7.03101 21.2113 7.03101H23.5681C23.6926 7.03101 23.812 7.08047 23.9 7.16851C23.9881 7.25656 24.0376 7.37597 24.0376 7.50049V23.5301C24.0376 23.6033 24.0205 23.6756 23.9876 23.7411C23.9547 23.8066 23.9069 23.8635 23.8481 23.9072C23.7893 23.9509 23.7211 23.9802 23.6489 23.9929C23.5767 24.0055 23.5026 24.001 23.4324 23.9798C19.3291 22.7427 15.6474 22.7404 12.1756 23.9728C12.0688 24.0103 11.9521 24.0079 11.8469 23.9662C8.7953 22.7484 5.11408 22.7535 0.595305 23.9831C0.554319 23.9944 0.51198 23.9999 0.469484 23.9995Z" fill="#CCCCCC"/>
<path d="M12.0188 21.169C11.9881 21.1691 11.9574 21.1661 11.9273 21.1601C8.95386 20.5643 5.89178 20.5643 2.91836 21.1601C2.8501 21.1741 2.7796 21.1726 2.71196 21.1559C2.64433 21.1392 2.58125 21.1077 2.52732 21.0636C2.47338 21.0195 2.42993 20.964 2.40013 20.901C2.37032 20.838 2.3549 20.7692 2.35498 20.6996V6.55778C2.35498 6.46297 2.38368 6.37037 2.43731 6.29219C2.49094 6.214 2.56699 6.15388 2.65545 6.11975C4.62728 5.35684 6.56437 5.03994 8.41179 5.1775C8.47418 5.18084 8.53528 5.19661 8.5915 5.22388C8.64772 5.25114 8.69793 5.28935 8.7392 5.33627C8.78046 5.3832 8.81194 5.43788 8.83179 5.49713C8.85165 5.55637 8.85947 5.61898 8.85482 5.68129C8.85016 5.7436 8.83312 5.80435 8.80468 5.85999C8.77624 5.91563 8.73698 5.96503 8.6892 6.00529C8.64143 6.04556 8.58609 6.07589 8.52644 6.09449C8.4668 6.1131 8.40403 6.11961 8.34183 6.11365C6.72728 5.99346 5.03057 6.25215 3.29395 6.88313V20.1343C6.0242 19.6545 8.81722 19.6545 11.5475 20.1343V14.6113C11.5475 14.4868 11.5969 14.3674 11.685 14.2793C11.773 14.1913 11.8924 14.1418 12.017 14.1418C12.1415 14.1418 12.2609 14.1913 12.3489 14.2793C12.437 14.3674 12.4864 14.4868 12.4864 14.6113V20.6996C12.4864 20.8241 12.437 20.9435 12.3489 21.0315C12.2609 21.1196 12.1415 21.169 12.017 21.169H12.0188Z" fill="#CCCCCC"/>
<path d="M21.2113 21.169C21.1798 21.1692 21.1483 21.1662 21.1174 21.1601C18.1439 20.5648 15.0819 20.5648 12.1085 21.1601C12.0405 21.1733 11.9705 21.1713 11.9034 21.1543C11.8363 21.1373 11.7738 21.1056 11.7203 21.0616C11.6669 21.0176 11.6238 20.9623 11.5943 20.8997C11.5647 20.8371 11.5494 20.7687 11.5493 20.6995V14.6113C11.5493 14.4867 11.5988 14.3673 11.6868 14.2793C11.7749 14.1912 11.8943 14.1418 12.0188 14.1418C12.1433 14.1418 12.2627 14.1912 12.3508 14.2793C12.4388 14.3673 12.4883 14.4867 12.4883 14.6113V20.1343C15.2185 19.6544 18.0115 19.6544 20.7418 20.1343V6.88261C19.0047 6.2521 17.3099 5.99341 15.6958 6.11313C15.6336 6.11909 15.5708 6.11258 15.5112 6.09397C15.4515 6.07537 15.3962 6.04504 15.3484 6.00478C15.3006 5.96451 15.2614 5.91511 15.233 5.85947C15.2045 5.80384 15.1875 5.74308 15.1828 5.68077C15.1782 5.61846 15.186 5.55585 15.2058 5.49661C15.2257 5.43736 15.2572 5.38268 15.2984 5.33576C15.3397 5.28884 15.3899 5.25062 15.4461 5.22336C15.5024 5.19609 15.5634 5.18033 15.6258 5.17698C17.4733 5.03942 19.4094 5.35679 21.3808 6.1197C21.4691 6.15391 21.5451 6.21406 21.5986 6.29224C21.6522 6.37042 21.6808 6.46297 21.6808 6.55773V20.6995C21.6808 20.824 21.6313 20.9434 21.5433 21.0315C21.4552 21.1195 21.3358 21.169 21.2113 21.169Z" fill="#CCCCCC"/>
<path d="M10.4944 11.7812C10.3699 11.7812 10.2505 11.7317 10.1624 11.6437C10.0744 11.5556 10.0249 11.4362 10.0249 11.3117C10.0229 11.0306 9.95874 10.7535 9.83699 10.5001C9.71523 10.2468 9.53892 10.0236 9.3207 9.84643C8.64892 9.29064 8.16529 8.54084 7.936 7.69964C7.70671 6.85845 7.74296 5.96694 8.03979 5.14714C8.33662 4.32733 8.87952 3.61928 9.59421 3.11986C10.3089 2.62045 11.1604 2.35408 12.0323 2.3572C12.9042 2.36033 13.7538 2.6328 14.4649 3.13732C15.176 3.64185 15.7138 4.35378 16.0047 5.17569C16.2957 5.9976 16.3255 6.88934 16.0902 7.72888C15.8549 8.56841 15.3659 9.31472 14.6902 9.86568C14.4764 10.0409 14.3045 10.2617 14.187 10.5119C14.0695 10.762 14.0093 11.0353 14.0108 11.3117C14.0108 11.4362 13.9614 11.5556 13.8733 11.6437C13.7853 11.7317 13.6659 11.7812 13.5414 11.7812C13.4168 11.7812 13.2974 11.7317 13.2094 11.6437C13.1213 11.5556 13.0719 11.4362 13.0719 11.3117C13.07 10.896 13.1611 10.4851 13.3383 10.109C13.5155 9.73294 13.7745 9.40119 14.0963 9.13798C14.6217 8.70923 15.0019 8.1286 15.1847 7.47554C15.3675 6.82247 15.3441 6.12887 15.1177 5.48962C14.8912 4.85037 14.4728 4.2967 13.9196 3.90436C13.3664 3.51203 12.7056 3.30018 12.0274 3.29782C11.3492 3.29546 10.6869 3.50269 10.131 3.89117C9.57512 4.27964 9.15283 4.83038 8.92193 5.46804C8.69103 6.10569 8.66278 6.79912 8.84106 7.45344C9.01934 8.10776 9.39543 8.69103 9.91788 9.12342C10.2424 9.38861 10.5042 9.72235 10.6845 10.1007C10.8648 10.479 10.9591 10.8926 10.9606 11.3117C10.9606 11.4356 10.9116 11.5546 10.8243 11.6425C10.7369 11.7305 10.6183 11.7803 10.4944 11.7812Z" fill="#CCCCCC"/>
<path d="M13.8147 13.6667H10.2231C9.92052 13.6663 9.63044 13.546 9.41648 13.332C9.20252 13.118 9.08216 12.828 9.08179 12.5254V11.9836C9.08216 11.681 9.20252 11.3909 9.41648 11.177C9.63044 10.963 9.92052 10.8427 10.2231 10.8423H13.8147C14.1172 10.8427 14.4073 10.963 14.6213 11.177C14.8352 11.3909 14.9556 11.681 14.956 11.9836V12.5254C14.9556 12.828 14.8352 13.118 14.6213 13.332C14.4073 13.546 14.1172 13.6663 13.8147 13.6667ZM10.2231 11.7813C10.1694 11.7813 10.118 11.8026 10.08 11.8405C10.0421 11.8785 10.0208 11.9299 10.0208 11.9836V12.5254C10.0208 12.579 10.0421 12.6305 10.08 12.6685C10.118 12.7064 10.1694 12.7277 10.2231 12.7277H13.8147C13.8683 12.7277 13.9198 12.7064 13.9577 12.6685C13.9957 12.6305 14.017 12.579 14.017 12.5254V11.9836C14.017 11.9299 13.9957 11.8785 13.9577 11.8405C13.9198 11.8026 13.8683 11.7813 13.8147 11.7813H10.2231Z" fill="#CCCCCC"/>
<path d="M12.0188 15.0808C11.5194 15.0803 11.0406 14.8816 10.6875 14.5285C10.3344 14.1754 10.1358 13.6966 10.1353 13.1972C10.1353 13.0727 10.1847 12.9533 10.2728 12.8652C10.3608 12.7772 10.4802 12.7277 10.6047 12.7277C10.7293 12.7277 10.8487 12.7772 10.9367 12.8652C11.0248 12.9533 11.0742 13.0727 11.0742 13.1972C11.0742 13.4477 11.1737 13.688 11.3509 13.8651C11.528 14.0423 11.7683 14.1418 12.0188 14.1418C12.2693 14.1418 12.5096 14.0423 12.6868 13.8651C12.8639 13.688 12.9634 13.4477 12.9634 13.1972C12.9634 13.0727 13.0129 12.9533 13.1009 12.8652C13.189 12.7772 13.3084 12.7277 13.4329 12.7277C13.5574 12.7277 13.6768 12.7772 13.7649 12.8652C13.8529 12.9533 13.9024 13.0727 13.9024 13.1972C13.9019 13.6966 13.7033 14.1754 13.3502 14.5285C12.997 14.8816 12.5182 15.0803 12.0188 15.0808ZM12.2536 1.40845C12.1291 1.40845 12.0096 1.35899 11.9216 1.27094C11.8335 1.1829 11.7841 1.06348 11.7841 0.938967V0.469484C11.7841 0.344969 11.8335 0.225554 11.9216 0.137509C12.0096 0.0494633 12.1291 0 12.2536 0C12.3781 0 12.4975 0.0494633 12.5855 0.137509C12.6736 0.225554 12.7231 0.344969 12.7231 0.469484V0.938967C12.7231 1.06348 12.6736 1.1829 12.5855 1.27094C12.4975 1.35899 12.3781 1.40845 12.2536 1.40845ZM16.1573 3.22207C16.0644 3.22214 15.9736 3.19466 15.8964 3.14311C15.8191 3.09155 15.7589 3.01824 15.7233 2.93245C15.6877 2.84666 15.6784 2.75223 15.6965 2.66113C15.7146 2.57003 15.7593 2.48634 15.8249 2.42066L16.1583 2.08732C16.2463 1.99923 16.3657 1.94971 16.4903 1.94967C16.6148 1.94963 16.7343 1.99906 16.8223 2.08709C16.9104 2.17512 16.96 2.29454 16.96 2.41908C16.96 2.54362 16.9106 2.66308 16.8226 2.75117L16.4892 3.08451C16.4012 3.17256 16.2818 3.22204 16.1573 3.22207ZM8.21601 2.88873C8.0915 2.88871 7.97211 2.83922 7.88408 2.75117L7.55075 2.41784C7.50716 2.37422 7.47259 2.32244 7.44901 2.26546C7.42543 2.20848 7.41331 2.14742 7.41333 2.08575C7.41337 1.96121 7.46289 1.84179 7.55098 1.75376C7.63908 1.66572 7.75854 1.61629 7.88308 1.61634C7.94474 1.61636 8.0058 1.62853 8.06276 1.65214C8.11973 1.67576 8.17148 1.71037 8.21507 1.75399L8.5484 2.08732C8.61407 2.15301 8.65878 2.2367 8.67687 2.3278C8.69496 2.4189 8.68562 2.51332 8.65004 2.59912C8.61446 2.68491 8.55422 2.75822 8.47696 2.80977C8.3997 2.86133 8.30889 2.88881 8.21601 2.88873ZM12.0188 11.7812C11.8943 11.7812 11.7749 11.7318 11.6868 11.6437C11.5988 11.5557 11.5493 11.4363 11.5493 11.3117V8.57418H11.1348C10.8018 8.57418 10.4825 8.44191 10.2471 8.20648C10.0117 7.97105 9.87939 7.65173 9.87939 7.31878C9.87939 6.98583 10.0117 6.66651 10.2471 6.43108C10.4825 6.19564 10.8018 6.06338 11.1348 6.06338H12.8507C13.1837 6.06338 13.503 6.19564 13.7385 6.43108C13.9739 6.66651 14.1061 6.98583 14.1061 7.31878C14.1061 7.65173 13.9739 7.97105 13.7385 8.20648C13.503 8.44191 13.1837 8.57418 12.8507 8.57418H12.4883V11.3117C12.4883 11.4363 12.4388 11.5557 12.3508 11.6437C12.2628 11.7318 12.1433 11.7812 12.0188 11.7812ZM12.4883 7.63521H12.8507C12.9347 7.63521 13.0152 7.60187 13.0745 7.54253C13.1338 7.48319 13.1672 7.4027 13.1672 7.31878C13.1672 7.23486 13.1338 7.15437 13.0745 7.09503C13.0152 7.03569 12.9347 7.00235 12.8507 7.00235H12.4883V7.63521ZM11.1348 7.00235C11.0509 7.00235 10.9704 7.03569 10.911 7.09503C10.8517 7.15437 10.8184 7.23486 10.8184 7.31878C10.8184 7.4027 10.8517 7.48319 10.911 7.54253C10.9704 7.60187 11.0509 7.63521 11.1348 7.63521H11.5493V7.00235H11.1348Z" fill="#CCCCCC"/>
</svg>
