<svg width="24" height="24" viewBox="0 0 24 24" fill="none" xmlns="http://www.w3.org/2000/svg">
<path fill-rule="evenodd" clip-rule="evenodd" d="M12 3.75C7.44367 3.75 3.75002 7.44365 3.75002 12C3.75002 13.6246 4.21885 15.1374 5.0283 16.4132C5.1491 16.6036 5.17783 16.8383 5.10652 17.0522L4.18587 19.8141L6.94782 18.8935C7.16174 18.8222 7.39639 18.8509 7.58679 18.9717C8.86259 19.7812 10.3754 20.25 12 20.25C13.3185 20.25 14.5627 19.9413 15.6662 19.3928C16.0372 19.2085 16.4873 19.3598 16.6717 19.7307C16.856 20.1016 16.7047 20.5518 16.3338 20.7361C15.0274 21.3853 13.5552 21.75 12 21.75C10.2118 21.75 8.53426 21.268 7.09231 20.4265L3.23719 21.7115C2.96769 21.8013 2.67056 21.7312 2.46969 21.5303C2.26882 21.3295 2.19867 21.0323 2.28851 20.7628L3.57355 16.9077C2.73207 15.4658 2.25002 13.7882 2.25002 12C2.25002 6.61522 6.61524 2.25 12 2.25C17.3848 2.25 21.75 6.61522 21.75 12C21.75 13.5552 21.3853 15.0274 20.7361 16.3338C20.5518 16.7047 20.1017 16.856 19.7307 16.6716C19.3598 16.4873 19.2085 16.0372 19.3929 15.6662C19.9413 14.5627 20.25 13.3185 20.25 12C20.25 7.44365 16.5564 3.75 12 3.75Z" fill="#CCCCCC"/>
<path fill-rule="evenodd" clip-rule="evenodd" d="M6.44499 10.5122C6.69726 9.56726 7.19435 8.67401 7.93418 7.93419C8.674 7.19436 9.56725 6.69727 10.5123 6.445C10.9125 6.33816 11.3236 6.57598 11.4304 6.97618C11.5372 7.37638 11.2994 7.78741 10.8992 7.89425C10.2022 8.08031 9.5432 8.44649 8.99484 8.99485C8.44648 9.5432 8.08031 10.2021 7.89424 10.8991C7.7874 11.2993 7.37637 11.5371 6.97617 11.4303C6.57597 11.3235 6.33816 10.9124 6.44499 10.5122ZM12.5698 6.97618C12.6766 6.57598 13.0877 6.33816 13.4879 6.445C14.4329 6.69727 15.3261 7.19436 16.066 7.93419C16.8058 8.67401 17.3029 9.56726 17.5551 10.5122C17.662 10.9124 17.4242 11.3235 17.024 11.4303C16.6238 11.5371 16.2127 11.2993 16.1059 10.8991C15.9198 10.2021 15.5537 9.5432 15.0053 8.99485C14.4569 8.44649 13.798 8.08031 13.101 7.89425C12.7008 7.78741 12.463 7.37638 12.5698 6.97618ZM6.97617 12.5697C7.37637 12.4629 7.7874 12.7007 7.89424 13.1009C8.08031 13.7979 8.44648 14.4568 8.99484 15.0052C9.5432 15.5536 10.2022 15.9197 10.8992 16.1058C11.2994 16.2126 11.5372 16.6237 11.4304 17.0239C11.3236 17.4241 10.9125 17.6619 10.5123 17.5551C9.56725 17.3028 8.674 16.8057 7.93418 16.0659C7.19435 15.326 6.69726 14.4328 6.44499 13.4878C6.33816 13.0876 6.57597 12.6765 6.97617 12.5697ZM12.5698 17.0239C12.463 16.6237 12.7008 16.2126 13.101 16.1058C13.798 15.9197 14.4569 15.5536 15.0053 15.0052C15.5537 14.4568 15.9198 13.7979 16.1059 13.1009C16.2127 12.7007 16.6238 12.4629 17.024 12.5697C17.4242 12.6765 17.662 13.0876 17.5551 13.4878C17.3029 14.4328 16.8058 15.326 16.066 16.0659C15.3261 16.8057 14.4329 17.3028 13.4879 17.5551C13.0877 17.6619 12.6766 17.4241 12.5698 17.0239Z" fill="#CCCCCC"/>
</svg>
