<svg width="90" height="90" viewBox="0 0 90 90" fill="none" xmlns="http://www.w3.org/2000/svg">
<g clip-path="url(#clip0_6725_12839)">
<path d="M45.4804 89.9998C70.1843 89.9998 90.2108 69.8526 90.2108 44.9998C90.2108 20.147 70.1843 -0.000183105 45.4804 -0.000183105C20.7765 -0.000183105 0.75 20.147 0.75 44.9998C0.75 69.8526 20.7765 89.9998 45.4804 89.9998Z" fill="#D8EFF2"/>
<path d="M37.5823 62.8232C36.4188 62.8204 35.3029 62.3577 34.4754 61.5348L22.8778 50.1774C22.4633 49.7608 22.1345 49.2662 21.9101 48.7217C21.6858 48.1772 21.5703 47.5936 21.5703 47.0041C21.5703 46.4147 21.6858 45.8309 21.9101 45.2864C22.1345 44.7419 22.4633 44.2473 22.8778 43.8307C23.2919 43.4137 23.7836 43.0829 24.3248 42.8572C24.8661 42.6315 25.4462 42.5154 26.0321 42.5154C26.618 42.5154 27.1982 42.6315 27.7394 42.8572C28.2807 43.0829 28.7724 43.4137 29.1865 43.8307L37.6772 52.1578L61.916 28.5602C62.3285 28.1404 62.8198 27.8071 63.3612 27.5796C63.9027 27.3521 64.4837 27.2349 65.0705 27.2349C65.6572 27.2349 66.2381 27.3521 66.7796 27.5796C67.3211 27.8071 67.8123 28.1404 68.2248 28.5602C69.0561 29.4047 69.5225 30.5452 69.5225 31.7337C69.5225 32.9222 69.0561 34.0627 68.2248 34.9071L40.8553 61.5348C40.4258 61.9626 39.9139 62.2976 39.3511 62.5191C38.7883 62.7407 38.1863 62.8441 37.5823 62.8232Z" fill="#6FCF97"/>
</g>
<defs>
<clipPath id="clip0_6725_12839">
<rect width="90" height="90" fill="white"/>
</clipPath>
</defs>
</svg>
